<svg width="72" height="80" viewBox="0 0 72 80" fill="none" xmlns="http://www.w3.org/2000/svg">
<path opacity="0.992" fill-rule="evenodd" clip-rule="evenodd" d="M35.0701 0C35.6991 0 36.3281 0 36.9571 0C47.5127 2.98728 58.1008 5.92998 68.7214 8.82812C69.9407 9.05042 70.7008 9.75355 71.0015 10.9375C72.1507 19.983 72.3079 29.0455 71.4732 38.125C70.9617 43.375 69.8086 48.4792 68.0138 53.4375C66.2961 57.6916 63.885 61.4938 60.7803 64.8438C54.1703 71.9684 46.2293 77.0206 36.9571 80C36.3281 80 35.6991 80 35.0701 80C23.3745 76.2695 14.0182 69.3945 7.00114 59.375C4.4994 55.2 2.76966 50.7208 1.81192 45.9375C0.550466 39.6464 -0.0523161 33.2923 0.00355444 26.875C0.0250976 21.5417 0.365809 16.2292 1.02567 10.9375C1.32638 9.75355 2.08641 9.05042 3.30578 8.82812C13.9264 5.92998 24.5144 2.98728 35.0701 0ZM51.5812 22.6562C52.4436 22.5509 53.2298 22.7331 53.94 23.2031C54.9621 24.2188 55.9842 25.2344 57.0063 26.25C57.6707 27.208 57.7231 28.1977 57.1636 29.2188C49.4802 36.9053 41.7488 44.5356 33.9693 52.1094C33.0721 52.4517 32.2335 52.3475 31.4534 51.7969C26.7096 47.0833 21.9661 42.3698 17.2223 37.6562C16.6701 36.5823 16.7224 35.5406 17.3796 34.5312C18.3493 33.5677 19.3189 32.6042 20.2887 31.6406C21.5353 30.6869 22.741 30.7389 23.9054 31.7969C26.9194 34.7917 29.9332 37.7864 32.9472 40.7812C38.7917 34.9739 44.636 29.1667 50.4805 23.3594C50.8576 23.1213 51.2244 22.8869 51.5812 22.6562Z" fill="#5F52A5"/>
</svg>
