<svg width="1190" height="524" viewBox="0 0 1190 524" fill="none" xmlns="http://www.w3.org/2000/svg">
<path opacity="0.12" d="M-448 607L-361 565.222C-274 523.444 -100 439.889 74 408.556C248 377.222 422 398.111 596 429.444C770 460.778 944 502.556 1118 471.222C1292 439.889 1466 335.444 1553 283.222L1640 231" stroke="#5F52A5"/>
<path opacity="0.12" d="M-418 637L-331 595.222C-244 553.444 -70 469.889 104 438.556C278 407.222 452 428.111 626 459.444C800 490.778 974 532.556 1148 501.222C1322 469.889 1496 365.444 1583 313.222L1670 261" stroke="#5F52A5"/>
<path opacity="0.12" d="M-388 667L-301 625.222C-214 583.444 -40 499.889 134 468.556C308 437.222 482 458.111 656 489.444C830 520.778 1004 562.556 1178 531.222C1352 499.889 1526 395.444 1613 343.222L1700 291" stroke="#5F52A5"/>
<path opacity="0.12" d="M-358 697L-271 655.222C-184 613.444 -10 529.889 164 498.556C338 467.222 512 488.111 686 519.444C860 550.778 1034 592.556 1208 561.222C1382 529.889 1556 425.444 1643 373.222L1730 321" stroke="#5F52A5"/>
<path opacity="0.12" d="M-328 727L-241 685.222C-154 643.444 20 559.889 194 528.556C368 497.222 542 518.111 716 549.444C890 580.778 1064 622.556 1238 591.222C1412 559.889 1586 455.444 1673 403.222L1760 351" stroke="#5F52A5"/>
<path opacity="0.12" d="M-298 757L-211 715.222C-124 673.444 50 589.889 224 558.556C398 527.222 572 548.111 746 579.444C920 610.778 1094 652.556 1268 621.222C1442 589.889 1616 485.444 1703 433.222L1790 381" stroke="#5F52A5"/>
<path opacity="0.12" d="M-268 787L-181 745.222C-94 703.444 80 619.889 254 588.556C428 557.222 602 578.111 776 609.444C950 640.778 1124 682.556 1298 651.222C1472 619.889 1646 515.444 1733 463.222L1820 411" stroke="#5F52A5"/>
<path opacity="0.12" d="M-478 577L-391 535.222C-304 493.444 -130 409.889 44 378.556C218 347.222 392 368.111 566 399.444C740 430.778 914 472.556 1088 441.222C1262 409.889 1436 305.444 1523 253.222L1610 201" stroke="#5F52A5"/>
<path opacity="0.12" d="M-508 547L-421 505.222C-334 463.444 -160 379.889 14 348.556C188 317.222 362 338.111 536 369.444C710 400.778 884 442.556 1058 411.222C1232 379.889 1406 275.444 1493 223.222L1580 171" stroke="#5F52A5"/>
<path opacity="0.12" d="M-538 517L-451 475.222C-364 433.444 -190 349.889 -16 318.556C158 287.222 332 308.111 506 339.444C680 370.778 854 412.556 1028 381.222C1202 349.889 1376 245.444 1463 193.222L1550 141" stroke="#5F52A5"/>
<path opacity="0.12" d="M-568 487L-481 445.222C-394 403.444 -220 319.889 -46 288.556C128 257.222 302 278.111 476 309.444C650 340.778 824 382.556 998 351.222C1172 319.889 1346 215.444 1433 163.222L1520 111" stroke="#5F52A5"/>
<path opacity="0.12" d="M-598 457L-511 415.222C-424 373.444 -250 289.889 -76 258.556C98 227.222 272 248.111 446 279.444C620 310.778 794 352.556 968 321.222C1142 289.889 1316 185.444 1403 133.222L1490 81" stroke="#5F52A5"/>
<path opacity="0.12" d="M-628 427L-541 385.222C-454 343.444 -280 259.889 -106 228.556C68 197.222 242 218.111 416 249.444C590 280.778 764 322.556 938 291.222C1112 259.889 1286 155.444 1373 103.222L1460 51" stroke="#5F52A5"/>
<path opacity="0.12" d="M-658 397L-571 355.222C-484 313.444 -310 229.889 -136 198.556C38 167.222 212 188.111 386 219.444C560 250.778 734 292.556 908 261.222C1082 229.889 1256 125.444 1343 73.2222L1430 21" stroke="#5F52A5"/>
<path opacity="0.12" d="M-688 367L-601 325.222C-514 283.444 -340 199.889 -166 168.556C8 137.222 182 158.111 356 189.444C530 220.778 704 262.556 878 231.222C1052 199.889 1226 95.4444 1313 43.2222L1400 -9" stroke="#5F52A5"/>
<path opacity="0.12" d="M-718 337L-631 295.222C-544 253.444 -370 169.889 -196 138.556C-22 107.222 152 128.111 326 159.444C500 190.778 674 232.556 848 201.222C1022 169.889 1196 65.4444 1283 13.2222L1370 -39" stroke="#5F52A5"/>
<path opacity="0.12" d="M-748 307L-661 265.222C-574 223.444 -400 139.889 -226 108.556C-52 77.2222 122 98.1111 296 129.444C470 160.778 644 202.556 818 171.222C992 139.889 1166 35.4444 1253 -16.7778L1340 -69" stroke="#5F52A5"/>
<path opacity="0.12" d="M-778 277L-691 235.222C-604 193.444 -430 109.889 -256 78.5556C-82 47.2222 92 68.1111 266 99.4444C440 130.778 614 172.556 788 141.222C962 109.889 1136 5.44445 1223 -46.7778L1310 -99" stroke="#5F52A5"/>
<path opacity="0.12" d="M-808 247L-721 205.222C-634 163.444 -460 79.8889 -286 48.5556C-112 17.2222 62 38.1111 236 69.4444C410 100.778 584 142.556 758 111.222C932 79.8889 1106 -24.5556 1193 -76.7778L1280 -129" stroke="#5F52A5"/>
<path opacity="0.12" d="M-838 217L-751 175.222C-664 133.444 -490 49.8889 -316 18.5556C-142 -12.7778 32 8.11111 206 39.4444C380 70.7778 554 112.556 728 81.2222C902 49.8889 1076 -54.5556 1163 -106.778L1250 -159" stroke="#5F52A5"/>
<path opacity="0.12" d="M-868 187L-781 145.222C-694 103.444 -520 19.8889 -346 -11.4444C-172 -42.7778 2 -21.8889 176 9.44445C350 40.7778 524 82.5556 698 51.2222C872 19.8889 1046 -84.5556 1133 -136.778L1220 -189" stroke="#5F52A5"/>
<path opacity="0.12" d="M-898 157L-811 115.222C-724 73.4445 -550 -10.1111 -376 -41.4444C-202 -72.7778 -28 -51.8889 146 -20.5556C320 10.7778 494 52.5556 668 21.2222C842 -10.1111 1016 -114.556 1103 -166.778L1190 -219" stroke="#5F52A5"/>
<path opacity="0.12" d="M-928 127L-841 85.2222C-754 43.4445 -580 -40.1111 -406 -71.4444C-232 -102.778 -58 -81.8889 116 -50.5556C290 -19.2222 464 22.5556 638 -8.77777C812 -40.1111 986 -144.556 1073 -196.778L1160 -249" stroke="#5F52A5"/>
<path opacity="0.12" d="M-958 97L-871 55.2222C-784 13.4445 -610 -70.1111 -436 -101.444C-262 -132.778 -88 -111.889 86 -80.5556C260 -49.2222 434 -7.44444 608 -38.7778C782 -70.1111 956 -174.556 1043 -226.778L1130 -279" stroke="#5F52A5"/>
<path opacity="0.12" d="M-988 67L-901 25.2222C-814 -16.5555 -640 -100.111 -466 -131.444C-292 -162.778 -118 -141.889 56 -110.556C230 -79.2222 404 -37.4444 578 -68.7778C752 -100.111 926 -204.556 1013 -256.778L1100 -309" stroke="#5F52A5"/>
</svg>
