<svg width="32" height="33" viewBox="0 0 32 33" fill="none" xmlns="http://www.w3.org/2000/svg">
<path opacity="0.976" fill-rule="evenodd" clip-rule="evenodd" d="M13.8423 0.5C14.822 0.5 15.8018 0.5 16.7815 0.5C23.3699 1.30291 28.0399 4.59457 30.7917 10.375C31.412 11.895 31.8148 13.4575 32 15.0625C32 16.0208 32 16.9792 32 17.9375C31.2887 23.4779 28.4366 27.6758 23.4437 30.5312C21.3514 31.612 19.1306 32.2683 16.7815 32.5C15.8018 32.5 14.822 32.5 13.8423 32.5C8.22687 31.8719 3.90514 29.2886 0.877184 24.75C0.541449 24.2116 0.258418 23.6491 0.0280828 23.0625C-0.0561611 21.9346 0.488132 21.2887 1.66097 21.125C2.32632 21.1619 2.82707 21.4536 3.16322 22C5.4204 26.233 9.02365 28.6601 13.9729 29.2812C19.4571 29.5688 23.7136 27.5376 26.7421 23.1875C28.8988 19.6237 29.269 15.8945 27.8525 12C25.9278 7.55194 22.4988 4.83321 17.5653 3.84375C12.1961 3.15985 7.83086 4.83694 4.46953 8.875C3.87339 9.71344 3.31821 10.5781 2.80399 11.4688C1.87987 12.0716 1.04165 11.9778 0.289345 11.1875C0.0363518 10.8025 -0.0507333 10.3858 0.0280828 9.9375C1.08574 7.65337 2.62066 5.70544 4.63282 4.09375C7.33087 2.03231 10.4007 0.834393 13.8423 0.5Z" fill="#5F52A5"/>
<path opacity="0.98" fill-rule="evenodd" clip-rule="evenodd" d="M16.9779 9.93688C17.5371 9.88826 18.0379 10.0237 18.4802 10.3431C20.0625 11.8155 21.5974 13.3259 23.0849 14.8744C23.7857 16.1346 23.6986 17.3429 22.8236 18.4994C21.354 19.9056 19.8844 21.3119 18.4148 22.7181C17.5595 23.2309 16.7648 23.1579 16.0308 22.4994C15.5553 21.8129 15.5553 21.1254 16.0308 20.4369C16.8473 19.6556 17.6637 18.8744 18.4802 18.0931C15.2579 18.0723 12.0357 18.0514 8.81346 18.0306C7.91819 17.6822 7.53714 17.0468 7.67044 16.1244C7.85777 15.5284 8.26057 15.143 8.87878 14.9681C12.0792 14.9473 15.2797 14.9264 18.4802 14.9056C17.6637 14.1244 16.8473 13.3431 16.0308 12.5619C15.4969 11.7444 15.5732 10.9839 16.2594 10.2806C16.4891 10.1353 16.7286 10.0206 16.9779 9.93688Z" fill="#5F52A5"/>
</svg>
