<svg width="73" height="112" viewBox="0 0 73 112" fill="none" xmlns="http://www.w3.org/2000/svg">
<path fill-rule="evenodd" clip-rule="evenodd" d="M21.3223 4.21486C21.3223 1.88706 23.2093 0 25.5371 0C27.8649 0 29.752 1.88706 29.752 4.21486V16.4538C30.1624 16.3455 30.575 16.2436 30.9897 16.1479C35.1554 15.1874 39.4235 14.893 43.6348 15.2518V4.21486C43.6348 1.88706 45.5218 0 47.8496 0C50.1774 0 52.0645 1.88706 52.0645 4.21486V16.8761C53.2643 17.2418 54.4497 17.6637 55.6166 18.1416C62.1398 20.813 67.807 25.1183 72.0708 30.5972C73.4415 32.3586 72.8299 34.8681 70.9188 36.0209C69.0494 37.1485 66.6397 36.5478 65.2618 34.8545C61.9034 30.727 57.5296 27.4765 52.5263 25.4276C52.3728 25.3647 52.2188 25.303 52.0645 25.2425V83.9003C55.4399 82.5779 58.5662 80.7011 61.3072 78.3477C62.9565 76.9317 65.4235 76.7711 67.0563 78.2062C68.7298 79.677 68.8839 82.2512 67.2244 83.7378C62.8714 87.6372 57.6956 90.5505 52.0645 92.2667V106.878C52.0645 109.205 50.1774 111.093 47.8496 111.093C45.5218 111.093 43.6348 109.205 43.6348 106.878V93.891C38.9697 94.2885 34.2709 93.881 29.752 92.689V106.878C29.752 109.205 27.8649 111.093 25.5371 111.093C23.2093 111.093 21.3223 109.205 21.3223 106.878V89.4258C14.8354 86.0399 9.39839 80.9596 5.62808 74.7194C1.31871 67.5869 -0.594161 59.3016 0.161133 51.0401C0.916427 42.7786 4.30149 34.961 9.83558 28.6974C13.0899 25.0141 16.99 21.9784 21.3223 19.717V4.21486ZM43.6348 85.9605V23.1823C40.0416 22.7989 36.3864 23.0114 32.8248 23.8326C31.783 24.0728 30.7576 24.3632 29.752 24.7017V84.4411C34.2133 85.9428 38.9537 86.4601 43.6348 85.9605ZM15.9015 33.8722C17.522 32.0381 19.3427 30.4047 21.3223 28.9965V80.1463C17.7864 77.6309 14.7888 74.4193 12.5355 70.6898C9.088 64.9838 7.5577 58.3555 8.16194 51.7464C8.76617 45.1372 11.4742 38.883 15.9015 33.8722Z" fill="white"/>
</svg>
