<svg width="36" height="54" viewBox="0 0 36 54" fill="none" xmlns="http://www.w3.org/2000/svg">
<path fill-rule="evenodd" clip-rule="evenodd" d="M10.3643 2.04876C10.3643 0.917264 11.2815 0 12.413 0C13.5445 0 14.4618 0.917263 14.4618 2.04876V7.99794C14.6613 7.94531 14.8619 7.89574 15.0635 7.84926C17.0884 7.38239 19.163 7.23928 21.21 7.41368V2.04876C21.21 0.917264 22.1272 0 23.2587 0C24.3902 0 25.3075 0.917263 25.3075 2.04876V8.20316C25.8907 8.38093 26.467 8.58605 27.0342 8.81835C30.205 10.1169 32.9597 12.2096 35.0322 14.8728C35.6986 15.729 35.4013 16.9488 34.4723 17.5091C33.5636 18.0572 32.3923 17.7653 31.7226 16.9422C30.0901 14.9359 27.9641 13.3559 25.5321 12.3599C25.4574 12.3293 25.3826 12.2994 25.3075 12.27V40.7824C26.9483 40.1397 28.4679 39.2274 29.8003 38.0834C30.602 37.3951 31.8011 37.317 32.5948 38.0146C33.4083 38.7296 33.4832 39.9808 32.6765 40.7034C30.5606 42.5989 28.0447 44.015 25.3075 44.8492V51.9512C25.3075 53.0827 24.3902 54 23.2587 54C22.1272 54 21.21 53.0827 21.21 51.9512V45.6387C18.9424 45.8319 16.6584 45.6338 14.4618 45.0544V51.9512C14.4618 53.0827 13.5445 54 12.413 54C11.2815 54 10.3643 53.0827 10.3643 51.9512V43.4682C7.21119 41.8224 4.56837 39.353 2.73571 36.3197C0.641001 32.8528 -0.288811 28.8254 0.0783238 24.8097C0.445458 20.7939 2.09087 16.9939 4.78089 13.9493C6.36273 12.159 8.25849 10.6834 10.3643 9.58414V2.04876ZM21.21 41.7838V11.2685C19.4634 11.0822 17.6867 11.1855 15.9555 11.5846C15.4491 11.7014 14.9506 11.8425 14.4618 12.0071V41.0453C16.6303 41.7753 18.9346 42.0267 21.21 41.7838ZM7.72942 16.4647C8.51709 15.5732 9.40205 14.7793 10.3643 14.0947V38.9576C8.64557 37.7349 7.18856 36.1739 6.09327 34.361C4.41751 31.5875 3.67366 28.3656 3.96737 25.153C4.26107 21.9404 5.57741 18.9004 7.72942 16.4647Z" fill="#5F52A5"/>
</svg>
